<?xml version="1.0" encoding="UTF-8" standalone="no"?>
<svg
   viewBox="0 0 24 24"
   version="1.1"
   id="svg201"
   sodipodi:docname="abugida-thai.svg"
   inkscape:version="1.2.2 (732a01da63, 2022-12-09)"
   xmlns:inkscape="http://www.inkscape.org/namespaces/inkscape"
   xmlns:sodipodi="http://sodipodi.sourceforge.net/DTD/sodipodi-0.dtd"
   xmlns="http://www.w3.org/2000/svg"
   xmlns:svg="http://www.w3.org/2000/svg">
  <defs
     id="defs205" />
  <sodipodi:namedview
     id="namedview203"
     pagecolor="#ffffff"
     bordercolor="#000000"
     borderopacity="0.25"
     inkscape:showpageshadow="2"
     inkscape:pageopacity="0.0"
     inkscape:pagecheckerboard="0"
     inkscape:deskcolor="#d1d1d1"
     showgrid="false"
     inkscape:zoom="14.790317"
     inkscape:cx="13.995643"
     inkscape:cy="12.37296"
     inkscape:window-width="1366"
     inkscape:window-height="705"
     inkscape:window-x="-8"
     inkscape:window-y="-8"
     inkscape:window-maximized="1"
     inkscape:current-layer="svg201" />
  <path
     d="m 8.7719194,22.055777 c 0,-2.481874 4.3099366,1.508469 6.9850696,-3.503755 0.384718,-0.727112 -1.545334,-10.0689996 -0.722216,-10.0689996 1.002056,0 1.789386,0.8531446 1.789386,1.9389646 v 11.63379 h 1.789387 v -11.63379 c 0,-2.1328611 2.919543,-7.3261315 -3.578773,-3.8779295 C 13.722841,7.2402083 13.207788,2.2298725 12.518875,3.5192842 11.114206,6.1465821 8.4387294,-1.1282916 7.9605778,6.7117849 l 0.8113416,1.850308 C 9.305294,9.7784822 2.8928661,20.269254 1.6671363,20.269254 c -1.22572977,0 2.6313166,-12.6296813 2.6313166,-11.3014903 0,1.3281913 1.0110035,2.4237053 2.2367333,2.4237053 0.1520979,0 0.9127019,2.907308 1.0558529,2.858838 l -0.6085062,7.80547 M 6.5351862,8.4830224 c 0.2594611,0 0.4473467,0.2035914 0.4473467,0.4847413 0,0.2811499 -0.1878856,0.4847413 -0.4473467,0.4847413 -0.259461,0 -0.4473467,-0.2035914 -0.4473467,-0.4847413 0,-0.2811499 0.1878857,-0.4847413 0.4473467,-0.4847413 z"
     id="path199"
     style="stroke-width:0.931337"
     sodipodi:nodetypes="ccssccssccssssccsssss" />
</svg>
